<svg width="31" height="30" viewBox="0 0 31 30" fill="none" xmlns="http://www.w3.org/2000/svg">
<g clip-path="url(#clip0_1807_565)">
<path d="M24.9758 21.2549C23.5076 21.2549 22.3132 22.4508 22.3132 23.9214C22.3132 25.3925 23.5076 26.5892 24.9758 26.5892C26.4445 26.5892 27.6386 25.3925 27.6386 23.9214C27.6386 22.4508 26.4445 21.2549 24.9758 21.2549Z" fill="#F3AA3C"/>
<path d="M7.02175 21.2549C5.55286 21.2549 4.35852 22.4508 4.35852 23.9214C4.35852 25.3925 5.55286 26.5892 7.02175 26.5892C8.48983 26.5892 9.68417 25.3925 9.68417 23.9214C9.68427 22.4508 8.48993 21.2549 7.02175 21.2549Z" fill="#F3AA3C"/>
<path d="M26.478 10.0529C26.3375 9.62957 25.9413 9.34351 25.4949 9.34351H24.2363V13.7706H27.7095L26.478 10.0529Z" fill="#F3AA3C"/>
<path d="M29.8141 15.427H24.2363V19.6622C24.4766 19.6209 24.7237 19.5978 24.9755 19.5978C27.2011 19.5978 29.0387 21.2917 29.27 23.4589H29.4649C30.0363 23.4589 30.5 22.9953 30.5 22.4232V16.4006C30.5 15.9512 30.2135 15.5706 29.8141 15.427Z" fill="#F3AA3C"/>
<path d="M22.5403 4.4464C22.5403 3.87428 22.0767 3.41064 21.5051 3.41064H1.53505C0.963636 3.41064 0.5 3.87418 0.5 4.4464V22.4235C0.5 22.9956 0.963636 23.4592 1.53505 23.4592H2.72697C2.95838 21.2921 4.79586 19.5981 7.02181 19.5981C9.24696 19.5981 11.0841 21.2921 11.3155 23.4592H19.4898H20.6817C20.8211 22.1544 21.5424 21.0226 22.5803 20.3271L22.5403 4.4464Z" fill="#F3AA3C"/>
</g>
<defs>
<clipPath id="clip0_1807_565">
<rect width="30" height="30" fill="white" transform="translate(0.5)"/>
</clipPath>
</defs>
</svg>
