<svg width="30" height="30" viewBox="0 0 30 30" fill="none" xmlns="http://www.w3.org/2000/svg">
<g clip-path="url(#clip0_1807_12)">
<path d="M15.9375 0C13.9986 0 12.4219 1.5767 12.4219 3.51562C12.4219 5.45455 13.9986 7.03125 15.9375 7.03125C17.8764 7.03125 19.4531 5.45455 19.4531 3.51562C19.4531 1.5767 17.8764 0 15.9375 0Z" fill="#F3AA3C"/>
<path d="M28.2422 13.3008V14.1797C28.2422 15.267 27.2889 16.122 26.0937 15.8762C24.9223 11.8554 21.2103 8.90625 16.8164 8.90625H10.9443C10.6996 8.90625 10.4696 8.80412 10.3134 8.62647C9.48346 7.68744 8.28779 7.14844 7.03125 7.14844H4.39453C3.82471 7.14844 3.40658 7.68123 3.54053 8.23506L4.43057 11.9009C3.78 12.5807 3.23754 13.3446 2.8118 14.1797C1.05164 14.1797 0 15.4346 0 16.8164V19.4214C0 21.0901 1.29188 21.6993 2.6659 22.67C3.21006 23.8331 3.96967 24.8621 4.92756 25.7333C5.05717 25.85 5.27344 26.0964 5.27344 26.4285V28.5013C5.27344 29.3279 5.94551 30 6.77203 30H9.92719C10.749 30 11.4258 29.4439 11.4258 28.2422H16.8164C16.8164 29.4439 17.4932 30 18.315 30H21.4702C22.2967 30 22.9688 29.3279 22.9688 28.5014C22.9688 27.1731 22.8183 26.2682 23.7455 25.3171C25.4458 23.5689 26.4844 21.1849 26.4844 18.5742C26.4844 18.2762 26.4662 17.9824 26.4396 17.6912C26.4561 17.6914 26.4729 17.6962 26.4895 17.6962C28.4153 17.6962 30 16.1297 30 14.1797V13.3008C30 12.1422 28.2422 12.1375 28.2422 13.3008ZM6.15234 16.8164C5.66695 16.8164 5.27344 16.4229 5.27344 15.9375C5.27344 15.452 5.66695 15.0586 6.15234 15.0586C6.63773 15.0586 7.03125 15.452 7.03125 15.9375C7.03125 16.4229 6.63773 16.8164 6.15234 16.8164ZM16.8164 14.1797H12.8193C11.6607 14.1797 11.6559 12.4219 12.8193 12.4219H16.8164C17.975 12.4219 17.9797 14.1797 16.8164 14.1797Z" fill="#F3AA3C"/>
</g>
<defs>
<clipPath id="clip0_1807_12">
<rect width="30" height="30" fill="white"/>
</clipPath>
</defs>
</svg>
