<svg width="30" height="30" viewBox="0 0 30 30" fill="none" xmlns="http://www.w3.org/2000/svg">
<path d="M25.6693 16.0149H23.3492C23.5857 16.6624 23.7149 17.3611 23.7149 18.0893V26.8579C23.7149 27.1616 23.6621 27.453 23.5659 27.7241H27.4015C28.8343 27.7241 29.9999 26.5584 29.9999 25.1257V20.3455C30 17.9576 28.0572 16.0149 25.6693 16.0149Z" fill="#F3AA3C"/>
<path d="M6.28507 18.0893C6.28507 17.361 6.41427 16.6624 6.65075 16.0149H4.33067C1.94274 16.0149 0 17.9576 0 20.3456V25.1257C0 26.5584 1.16561 27.7241 2.5984 27.7241H6.43407C6.33792 27.4529 6.28507 27.1616 6.28507 26.8579V18.0893Z" fill="#F3AA3C"/>
<path d="M17.652 13.7588H12.348C9.96007 13.7588 8.01733 15.7015 8.01733 18.0895V26.858C8.01733 27.3363 8.40511 27.7242 8.88347 27.7242H21.1166C21.5949 27.7242 21.9827 27.3364 21.9827 26.858V18.0895C21.9827 15.7015 20.04 13.7588 17.652 13.7588Z" fill="#F3AA3C"/>
<path d="M15 2.27563C12.1282 2.27563 9.79187 4.61201 9.79187 7.48387C9.79187 9.43182 10.867 11.1331 12.4548 12.0263C13.2079 12.4499 14.0761 12.692 15 12.692C15.9239 12.692 16.7922 12.4499 17.5453 12.0263C19.1331 11.1331 20.2082 9.43176 20.2082 7.48387C20.2082 4.61206 17.8718 2.27563 15 2.27563Z" fill="#F3AA3C"/>
<path d="M5.8545 7.13037C3.70674 7.13037 1.95947 8.87764 1.95947 11.0254C1.95947 13.1732 3.70674 14.9204 5.8545 14.9204C6.39931 14.9204 6.9181 14.8076 7.38937 14.6047C8.20417 14.2539 8.87601 13.6329 9.29173 12.8551C9.58353 12.3092 9.74953 11.6864 9.74953 11.0254C9.74953 8.8777 8.00226 7.13037 5.8545 7.13037Z" fill="#F3AA3C"/>
<path d="M24.1455 7.13037C21.9978 7.13037 20.2505 8.87764 20.2505 11.0254C20.2505 11.6865 20.4165 12.3092 20.7083 12.8551C21.124 13.633 21.7958 14.254 22.6106 14.6047C23.0819 14.8076 23.6007 14.9204 24.1455 14.9204C26.2933 14.9204 28.0405 13.1732 28.0405 11.0254C28.0405 8.87764 26.2933 7.13037 24.1455 7.13037Z" fill="#F3AA3C"/>
</svg>
