<svg width="31" height="30" viewBox="0 0 31 30" fill="none" xmlns="http://www.w3.org/2000/svg">
<g clip-path="url(#clip0_1807_1812)">
<path d="M15.5 26.5366V29.5347L30.5 19.5347V16.5366L15.5 26.5366Z" fill="#F3AA3C"/>
<path d="M18.5521 0H16.1979L1.73364 9.64283H4.08782L18.5521 0Z" fill="#F3AA3C"/>
<path d="M4.78577 25.2491L19.7858 15.2491V0.465332L4.78577 10.4654V25.2491Z" fill="#F3AA3C"/>
<path d="M4.24924 26.7856C4.18566 26.7842 4.12279 26.7716 4.06367 26.7481C4.05172 26.7437 4.03994 26.7402 4.0284 26.7348C3.97379 26.7102 3.92381 26.6765 3.88051 26.6352C3.87201 26.627 3.86568 26.6176 3.85771 26.6088C3.83832 26.5897 3.82045 26.5691 3.80428 26.5472C3.7949 26.5332 3.79373 26.5169 3.78588 26.5023C3.75248 26.4387 3.73145 26.3694 3.72395 26.2979C3.72242 26.2813 3.71428 26.267 3.71428 26.2501V10.7144H0.5V30.0001H14.4286V26.7858H4.25L4.24924 26.7856Z" fill="#F3AA3C"/>
<path d="M20.4836 16.0713L6.01929 25.7141H14.8021L29.2664 16.0713H20.4836Z" fill="#F3AA3C"/>
</g>
<defs>
<clipPath id="clip0_1807_1812">
<rect width="30" height="30" fill="white" transform="translate(0.5)"/>
</clipPath>
</defs>
</svg>
